<svg width="40" height="40" viewBox="0 0 40 40" fill="none" xmlns="http://www.w3.org/2000/svg">
<rect width="40" height="40" rx="7" fill="white"/>
<path fill-rule="evenodd" clip-rule="evenodd" d="M7.67122 30.3623C6.87224 31.7665 6.31516 33.3124 6 35H34L33.94 34.1304C33.7801 31.9275 33.1204 29.9952 31.9609 28.3333C30.8414 26.6329 29.322 25.3188 27.4028 24.3913C25.5236 23.4638 23.3645 23 20.9256 23C18.0068 23 15.3879 23.657 13.0689 24.971C10.7899 26.2464 8.99066 28.0435 7.67122 30.3623ZM13.9086 34.1304H26.0834C26.0834 31.0773 25.5636 28.6039 24.524 26.7101C23.5245 24.8164 22.1051 23.8696 20.2659 23.8696C18.5066 23.8696 17.0472 24.7971 15.8877 26.6522C14.7282 28.5072 14.0685 31 13.9086 34.1304Z" fill="black"/>
<path fill-rule="evenodd" clip-rule="evenodd" d="M12.78 21.58C14.94 22.94 17.4 23.62 20.16 23.62C22.44 23.62 24.56 23.18 26.52 22.3C28.48 21.42 30.18 20.2 31.62 18.64C33.06 17.08 34.12 15.28 34.8 13.24L34.26 13.06C33.18 14.66 31.76 15.94 30 16.9C28.28 17.82 26.46 18.28 24.54 18.28C21.38 18.28 18.86 17.02 16.98 14.5C15.1 11.94 14.16 8.54 14.16 4.3V4H6.30807C6.10269 5.13776 6 6.33776 6 7.6C6 10.72 6.6 13.5 7.8 15.94C9 18.34 10.66 20.22 12.78 21.58Z" fill="black"/>
<path fill-rule="evenodd" clip-rule="evenodd" d="M12.78 21.58C14.94 22.94 17.4 23.62 20.16 23.62C22.44 23.62 24.56 23.18 26.52 22.3C28.48 21.42 30.18 20.2 31.62 18.64C33.06 17.08 34.12 15.28 34.8 13.24L34.26 13.06C33.18 14.66 31.76 15.94 30 16.9C28.28 17.82 26.46 18.28 24.54 18.28C21.38 18.28 18.86 17.02 16.98 14.5C15.1 11.94 14.16 8.54 14.16 4.3V4H6.30807C6.10269 5.13776 6 6.33776 6 7.6C6 10.72 6.6 13.5 7.8 15.94C9 18.34 10.66 20.22 12.78 21.58Z" fill="black"/>
<path d="M20 30C15.5 30 13.8642 33.6667 13 34.5H27C26.3086 33.6667 25 30 20 30Z" fill="black"/>
</svg>
